<svg width="35" height="35" viewBox="0 0 35 35" fill="none" xmlns="http://www.w3.org/2000/svg">
<g id="Social Icons">
<path id="Vector" d="M34.6514 10.5001C34.6514 10.5001 34.3096 8.08698 33.2568 7.02741C31.9238 5.63288 30.4336 5.62604 29.75 5.54401C24.8555 5.18854 17.5068 5.18854 17.5068 5.18854H17.4932C17.4932 5.18854 10.1445 5.18854 5.25 5.54401C4.56641 5.62604 3.07617 5.63288 1.74316 7.02741C0.69043 8.08698 0.355469 10.5001 0.355469 10.5001C0.355469 10.5001 0 13.337 0 16.1671V18.8194C0 21.6495 0.348633 24.4864 0.348633 24.4864C0.348633 24.4864 0.69043 26.8995 1.73633 27.959C3.06934 29.3536 4.81934 29.3057 5.59863 29.4561C8.40137 29.7227 17.5 29.8048 17.5 29.8048C17.5 29.8048 24.8555 29.7911 29.75 29.4424C30.4336 29.3604 31.9238 29.3536 33.2568 27.959C34.3096 26.8995 34.6514 24.4864 34.6514 24.4864C34.6514 24.4864 35 21.6563 35 18.8194V16.1671C35 13.337 34.6514 10.5001 34.6514 10.5001ZM13.8838 22.0391V12.2022L23.3379 17.1378L13.8838 22.0391Z" fill="white"/>
</g>
</svg>
